HIERARCHY
ROOT Hips
{
	OFFSET 0.00000 0.00000 0.00000
	CHANNELS 6 Xposition Yposition Zposition Zrotation Yrotation Xrotation 
	JOINT LHipJoint
	{
		OFFSET 0 0 0
		CHANNELS 3 Zrotation Yrotation Xrotation
		JOINT LeftHip
		{
			OFFSET 1.86795 -1.59681 0.65681
			CHANNELS 3 Zrotation Yrotation Xrotation
			JOINT LeftKnee
			{
				OFFSET 2.30491 -6.33268 0.00000
				CHANNELS 3 Zrotation Yrotation Xrotation
				JOINT LeftAnkle
				{
					OFFSET 2.46780 -6.78022 0.00000
					CHANNELS 3 Zrotation Yrotation Xrotation
					JOINT LeftToe
					{
						OFFSET 0.07897 -0.21698 1.59652
						CHANNELS 3 Zrotation Yrotation Xrotation
						End Site
						{
							OFFSET 0.00000 -0.00000 0.82310
						}
					}
				}
			}
		}
	}
	JOINT RHipJoint
	{
		OFFSET 0 0 0
		CHANNELS 3 Zrotation Yrotation Xrotation
		JOINT RightHip
		{
			OFFSET -1.93650 -1.59681 0.65681
			CHANNELS 3 Zrotation Yrotation Xrotation
			JOINT RightKnee
			{
				OFFSET -2.29410 -6.30299 0.00000
				CHANNELS 3 Zrotation Yrotation Xrotation
				JOINT RightAnkle
				{
					OFFSET -2.48738 -6.83403 0.00000
					CHANNELS 3 Zrotation Yrotation Xrotation
					JOINT RightToe
					{
						OFFSET -0.08699 -0.23899 1.89395
						CHANNELS 3 Zrotation Yrotation Xrotation
						End Site
						{
							OFFSET -0.00000 -0.00000 0.96904
						}
					}
				}
			}
		}
	}
	JOINT lowerback
	{
		OFFSET 0 0 0
		CHANNELS 3 Zrotation Yrotation Xrotation
		JOINT Chest
		{
			OFFSET 0.03629 1.99740 -0.07548
			CHANNELS 3 Zrotation Yrotation Xrotation
			JOINT Chest2
			{
				OFFSET 0.03970 1.94298 0.17218
				CHANNELS 3 Zrotation Yrotation Xrotation
				JOINT lowerneck
				{
					OFFSET 0 0 0
					CHANNELS 3 Zrotation Yrotation Xrotation
					JOINT Neck
					{
						OFFSET -0.05054 1.79469 0.04241
						CHANNELS 3 Zrotation Yrotation Xrotation
						JOINT Head
						{
							OFFSET 0.05195 1.78475 -0.22133
							CHANNELS 3 Zrotation Yrotation Xrotation
							End Site
							{
								OFFSET 0.02420 1.80711 -0.07950
							}
						}
					}
				}
				JOINT LeftCollar
				{
					OFFSET 0 0 0
					CHANNELS 3 Zrotation Yrotation Xrotation
					JOINT LeftShoulder
					{
						OFFSET 2.92134 1.19850 0.36056
CHANNELS 3 Zrotation Xrotation Yrotation
						JOINT LeftElbow
						{
OFFSET 0 -4.841370 0.000000
CHANNELS 3 Zrotation Xrotation Yrotation
							JOINT LeftWrist
							{
OFFSET 0 -3.245200 -0.000000
CHANNELS 3 Zrotation Xrotation Yrotation
								JOINT lhand
								{
									OFFSET 0 0 0
CHANNELS 3 Zrotation Xrotation Yrotation
									JOINT LFingers
									{
OFFSET 0 -0.521220 0.000000
CHANNELS 3 Zrotation Xrotation Yrotation
										End Site
										{
OFFSET 0 -0.420220 0.000000
										}
									}
								}
								JOINT LThumb
								{
OFFSET 0 0.000000 0.000000
CHANNELS 3 Zrotation Xrotation Yrotation
									End Site
									{
OFFSET 0 -0.426640 0.426640
									}
								}
							}
						}
					}
				}
				JOINT RightCollar
				{
					OFFSET 0 0 0
					CHANNELS 3 Zrotation Yrotation Xrotation
					JOINT RightShoulder
					{
						OFFSET -2.84327 1.20795 0.50191
CHANNELS 3 Zrotation Xrotation Yrotation
						JOINT RightElbow
						{
OFFSET 0 -4.722840 0.000000
CHANNELS 3 Zrotation Xrotation Yrotation
							JOINT RightWrist
							{
OFFSET 0 -3.234590 0.000000
CHANNELS 3 Zrotation Xrotation Yrotation
								JOINT rhand
								{
									OFFSET 0 0 0
CHANNELS 3 Zrotation Xrotation Yrotation
									JOINT RFingers
									{
OFFSET 0 -0.307420 0.000000
CHANNELS 3 Zrotation Xrotation Yrotation
										End Site
										{
OFFSET 0 -0.247850 0.000000
										}
									}
								}
								JOINT RThumb
								{
OFFSET 0 0.000000 0.000000
CHANNELS 3 Zrotation Xrotation Yrotation
									End Site
									{
OFFSET 0 -0.251630 0.251630
									}
								}
							}
						}
					}
				}
			}
		}
	}
}
MOTION
Frames: 10
Frame Time: 0.008333333333333333
4.965590 16.852779 30.520875 -181.016427 -76.387427 -167.602159 0.000000 0.000000 0.000000 -5.353721 -38.595695 -29.023162 0.894406 6.024417 16.856219 -0.313544 17.381612 -21.582304 0.307978 3.540348 9.789665 0.000000 0.000000 0.000000 33.708556 23.219872 9.536778 -0.695281 -5.330196 14.852731 1.030288 -18.963075 -14.660915 -0.250201 3.177290 -8.775862 1.324073 1.857541 -5.712388 -0.234220 2.244875 -5.417205 -0.897623 1.000542 -2.320073 -11.202575 -11.304969 -0.317496 15.691358 -18.933457 18.005891 5.306104 -9.189890 8.183116 0.000000 0.000000 0.000000 0.774988 15.957723 -9.338044 18.479217 -28.766429 4.777627 -4.047696 28.064110 -42.873374 0.000000 0.000000 0.000000 -7.125000 0.000000 0.000000 -53.180128 65.131958 29.530124 0.000000 0.000000 0.000000 -9.523564 8.184458 39.894920 -17.367789 -27.340039 -4.254892 -22.814605 -19.947970 -29.999035 0.000000 0.000000 0.000000 7.125000 0.000000 0.000000 4.738863 -1.980243 4.921378
3.634902 16.732828 30.312309 -180.612316 -71.571396 -168.148566 0.000000 0.000000 0.000000 -6.899692 -38.013267 -25.259519 0.817484 5.769282 16.116433 -0.097969 12.419239 -16.326114 0.223519 3.042446 8.397070 0.000000 0.000000 0.000000 31.753363 17.873488 11.456876 -0.833700 -5.824800 16.276999 0.412164 -12.054418 -8.981477 -2.305444 9.449647 -27.228801 1.611259 2.522267 -6.976448 -0.475369 3.042557 -5.879052 -1.231546 1.363195 -2.053568 -9.099983 -10.680268 -0.273171 13.987411 -17.788947 17.981866 4.581651 -8.641118 7.631116 0.000000 0.000000 0.000000 1.214391 17.501675 -5.984433 17.363965 -27.335093 4.253092 -0.165996 33.493349 -40.960288 0.000000 0.000000 0.000000 -7.125000 0.000000 0.000000 -46.553902 65.006364 24.936150 0.000000 0.000000 0.000000 -7.427826 11.524715 36.915618 -16.487291 -26.176892 -3.858426 -21.174928 -18.674356 -32.432858 0.000000 0.000000 0.000000 7.125000 0.000000 0.000000 6.022840 -4.123147 6.475225
2.216933 16.782325 30.029096 -187.082114 -68.193533 -162.780890 0.000000 0.000000 0.000000 -14.990583 -31.732825 -20.658185 1.021264 6.427943 18.031709 -0.158278 9.372682 -10.018807 0.144115 2.364024 6.516698 0.000000 0.000000 0.000000 26.265528 11.444540 5.461139 -2.749972 -10.267603 29.858430 0.008342 -2.009284 -2.089752 -2.731674 10.147020 -29.545188 -0.927365 2.080189 -7.712926 -0.994028 2.483558 -6.702074 -0.369738 1.120132 -2.612155 -8.776851 -9.059084 -0.919405 14.672822 -16.354630 20.639900 4.889637 -7.885744 8.471995 0.000000 0.000000 0.000000 1.678012 18.671221 -2.928150 16.388531 -26.044672 3.815003 -3.528713 32.660226 -42.353014 0.000000 0.000000 0.000000 -7.125000 0.000000 0.000000 -51.859360 64.958996 28.409994 0.000000 0.000000 0.000000 -6.869789 15.050180 35.826291 -13.993328 -22.724877 -2.825724 -21.999197 -18.131215 -30.069765 0.000000 0.000000 0.000000 7.125000 0.000000 0.000000 5.218721 -1.884772 5.409576
1.077904 16.917530 29.844593 -194.553646 -63.546589 -156.386397 0.000000 0.000000 0.000000 -23.801986 -26.156855 -12.551814 0.497555 4.522226 12.550736 -0.176273 8.790573 -8.238999 0.154723 2.510280 6.919227 0.000000 0.000000 0.000000 17.632950 7.580634 -12.184422 -9.544185 -17.140082 57.946081 -0.118316 -0.467979 6.568869 -0.320573 3.160305 -8.773834 -3.227381 1.491022 -6.692551 -2.189838 1.758518 -6.371464 -0.376615 0.813675 -2.877187 -8.676619 -8.013249 -2.300270 16.141284 -14.923369 19.680191 5.470333 -7.055336 8.314693 0.000000 0.000000 0.000000 3.264116 18.926549 -8.887424 18.691011 -29.026105 4.883472 -1.777663 26.769568 -43.946153 0.000000 0.000000 0.000000 -7.125000 0.000000 0.000000 -53.069967 66.463980 30.987866 0.000000 0.000000 0.000000 -7.472421 16.483670 37.616562 -13.387894 -21.852878 -2.595916 -22.690406 -18.735581 -27.278276 0.000000 0.000000 0.000000 7.125000 0.000000 0.000000 4.444172 0.854894 4.390632
0.259295 16.868955 29.522842 -192.908970 -61.197991 -157.279624 0.000000 0.000000 0.000000 -24.920368 -25.413781 -12.818861 1.027860 6.448694 18.092230 0.074179 8.509235 -13.461116 0.287016 3.445489 9.521612 0.000000 0.000000 0.000000 18.298294 5.333700 -28.831286 -13.132320 -18.829386 69.535999 0.433180 -11.790514 -1.942201 -0.061340 1.565480 -4.306706 -4.275312 0.390077 -5.612376 -1.484046 0.360231 -5.796324 0.878946 0.185033 -2.871630 -8.357647 -8.109430 -4.089789 17.002697 -15.061356 18.942377 5.599142 -6.957899 8.472778 0.000000 0.000000 0.000000 4.513301 14.847288 -10.661695 19.040187 -29.468522 5.050718 -3.842332 27.149108 -42.460591 0.000000 0.000000 0.000000 -7.125000 0.000000 0.000000 -52.328725 64.935339 28.707235 0.000000 0.000000 0.000000 -9.623762 17.771546 44.053132 -16.110952 -25.670748 -3.693915 -27.011170 -18.966883 -29.679404 0.000000 0.000000 0.000000 7.125000 0.000000 0.000000 2.272545 -2.604046 2.375299
-0.464554 16.708506 29.135179 -190.691280 -58.938551 -158.226776 0.000000 0.000000 0.000000 -25.237506 -25.039845 -14.065560 1.840679 8.526041 24.323542 0.395946 9.840501 -19.260395 0.159871 2.096742 5.789875 0.000000 0.000000 0.000000 19.592202 9.714783 -38.449834 -10.412876 -17.633143 60.856447 0.205653 -9.363828 -8.459074 -0.071185 -1.053148 2.904477 -4.773201 -0.661744 -4.194670 -0.463986 -1.099180 -6.132497 2.190404 -0.475404 -3.928460 -9.029641 -8.211496 -4.027085 16.936759 -15.122580 18.741930 5.678199 -7.053825 8.446820 0.000000 0.000000 0.000000 5.000676 12.487303 -10.727194 21.129912 -31.979115 6.118861 -3.898080 26.665996 -42.331887 0.000000 0.000000 0.000000 -7.125000 0.000000 0.000000 -52.147632 64.836305 28.472318 0.000000 0.000000 0.000000 -10.561030 18.965156 46.297788 -18.369278 -28.627338 -4.724885 -28.507773 -26.488840 -31.791356 0.000000 0.000000 0.000000 7.125000 0.000000 0.000000 1.806584 -5.209981 1.958940
-1.306649 16.790393 28.549075 -191.101382 -56.844253 -157.887967 0.000000 0.000000 0.000000 -27.892732 -22.761400 -5.903719 0.996760 6.347075 17.796935 0.274354 12.178764 -20.542467 0.297666 3.507938 9.696334 0.000000 0.000000 0.000000 16.763696 15.752703 -36.595682 -4.020599 -12.182423 36.387979 1.286925 -21.809485 -18.712298 -1.570190 -7.906315 22.430113 -5.866728 -1.648149 -4.447531 -0.091530 -2.357342 -5.887936 3.157313 -1.068387 -3.394020 -9.649374 -8.043387 -3.622961 17.099513 -14.925025 18.650328 5.880546 -7.035740 8.368524 0.000000 0.000000 0.000000 5.763806 11.407445 -12.625741 23.302717 -34.418006 7.308750 -4.863259 24.365405 -42.128177 0.000000 0.000000 0.000000 -7.125000 0.000000 0.000000 -52.680155 64.432157 28.365828 0.000000 0.000000 0.000000 -9.281662 18.577787 43.529720 -17.252172 -27.188894 -4.201968 -32.194921 -26.904983 -29.937956 0.000000 0.000000 0.000000 7.125000 0.000000 0.000000 -0.638279 -4.254866 -0.682930
-2.143816 16.765398 27.818085 -191.732194 -54.738896 -157.720838 0.000000 0.000000 0.000000 -29.703862 -16.144881 4.291244 0.090889 1.941133 5.342949 -0.109307 12.758208 -16.685408 0.074228 1.749078 4.812959 0.000000 0.000000 0.000000 -2.919761 55.102065 -29.897954 -1.805047 -8.447595 24.082158 -15.787814 -13.144277 -79.597880 -10.171646 -17.505213 60.060386 -6.324656 -2.065692 -5.317354 -0.157859 -2.874182 -5.967703 3.298020 -1.337150 -2.931236 -10.030894 -8.013885 -2.886945 16.799398 -15.027578 19.111579 5.866305 -7.192220 8.402432 0.000000 0.000000 0.000000 5.652174 10.324258 -13.374214 23.387766 -34.510067 7.356807 -3.092236 24.174417 -43.173535 0.000000 0.000000 0.000000 -7.125000 0.000000 0.000000 -52.851169 65.597149 29.838386 0.000000 0.000000 0.000000 -8.888297 19.278394 44.889804 -16.420609 -26.087659 -3.829015 -15.897566 -15.519956 -26.672648 0.000000 0.000000 0.000000 7.125000 0.000000 0.000000 8.441994 2.657846 8.128909
-2.957544 16.676181 26.900126 -191.334337 -52.317494 -158.984831 0.000000 0.000000 0.000000 -29.316380 -9.733146 6.398400 0.179338 2.722961 7.508662 0.125456 9.456130 -15.450224 0.303466 -3.540709 -9.788057 0.000000 0.000000 0.000000 8.715370 33.934179 -29.768077 -2.117105 -9.105596 26.126354 -2.728256 -25.378426 -47.679021 -7.578147 -15.799699 51.028005 -6.431075 -2.237866 -6.402232 -0.353392 -3.063683 -6.073071 3.103028 -1.463800 -2.427490 -10.005319 -8.062873 -2.231189 16.561579 -15.464786 19.968696 5.762751 -7.491013 8.613158 0.000000 0.000000 0.000000 4.546094 11.007833 -13.406418 23.336831 -34.455087 7.328019 -4.885694 23.497432 -45.598742 0.000000 0.000000 0.000000 -7.125000 0.000000 0.000000 -58.766735 66.464994 35.241011 0.000000 0.000000 0.000000 -8.599041 20.018903 45.119345 -15.875122 -25.350643 -3.592509 -11.796365 -11.021277 -25.462414 0.000000 0.000000 0.000000 7.125000 0.000000 0.000000 10.836779 4.435192 10.160960
-3.671520 16.721773 25.818622 -186.451272 -50.277099 -164.449117 0.000000 0.000000 0.000000 -23.391548 -2.971383 -4.560181 3.048455 10.765879 31.501885 0.170674 0.441635 -7.897239 0.395591 3.944123 10.930468 0.000000 0.000000 0.000000 18.867318 26.249474 -25.870524 -2.370430 -9.598403 27.685854 1.305621 -26.504485 -29.000082 -6.150002 -14.567705 45.572702 -4.435656 -2.581215 -6.721484 0.656827 -3.583593 -6.246623 2.997523 -1.774717 -2.411337 -10.690875 -7.464343 -1.705980 16.263888 -15.145594 21.765152 5.861789 -7.497919 9.102080 0.000000 0.000000 0.000000 1.771563 12.370937 -10.784836 21.192298 -32.052013 6.151705 -0.220430 27.472323 -44.567376 0.000000 0.000000 0.000000 -7.125000 0.000000 0.000000 -53.184873 67.269375 32.083863 0.000000 0.000000 0.000000 -8.454090 19.461605 42.110195 -14.836566 -23.918003 -3.159437 -15.439761 -12.643871 -26.223021 0.000000 0.000000 0.000000 7.125000 0.000000 0.000000 8.703313 3.154836 8.274707
